<svg width="14" height="14" viewBox="0 0 14 14" fill="none" xmlns="http://www.w3.org/2000/svg">
<path d="M0.7383 0.265332C0.566034 0.328222 0.325409 0.574316 0.265253 0.749316C0.237909 0.825879 0.218769 0.968066 0.218769 1.07744C0.218769 1.45479 0.0519717 1.26611 3.07072 4.28486L5.78322 7.0001L3.04611 9.73994C-0.0054502 12.797 0.218769 12.5427 0.218769 12.9446C0.218769 13.2837 0.401972 13.5681 0.708222 13.7103C0.801191 13.7513 0.891425 13.7677 1.05275 13.7677C1.47111 13.7677 1.21955 13.9892 4.27385 10.9403L7.00002 8.21689L9.71525 10.9294C11.5938 12.8079 12.466 13.6583 12.5508 13.7048C12.6547 13.7567 12.7149 13.7677 12.9336 13.7677C13.2235 13.7677 13.3356 13.7267 13.5297 13.5489C13.7567 13.3466 13.8442 12.9556 13.7403 12.6274C13.6965 12.4907 13.5543 12.3458 10.9539 9.73994L8.21682 7.0001L10.9403 4.27119C12.8188 2.38994 13.6801 1.51221 13.7156 1.43564C13.7895 1.27705 13.8004 0.946191 13.7375 0.760254C13.6746 0.566113 13.4395 0.328222 13.2508 0.265332C13.0785 0.20791 12.7914 0.205175 12.6164 0.262597C12.4934 0.303613 12.2528 0.536036 9.7426 3.04619L7.00002 5.7833L4.26017 3.04619C1.74728 0.536036 1.50666 0.303613 1.38361 0.262597C1.21408 0.20791 0.902362 0.20791 0.7383 0.265332Z" fill="#CCCCCC"/>
</svg>
