<svg width="30" height="30" viewBox="0 0 30 30" fill="none" xmlns="http://www.w3.org/2000/svg">
<g clip-path="url(#clip0_2045_2539)">
<path d="M3.02933 0.117186C1.88675 0.421873 0.914091 1.21875 0.416044 2.25586C-0.0351275 3.18164 2.87723e-05 2.16797 2.87723e-05 15C2.87723e-05 27.7793 -0.0292681 26.8066 0.392607 27.6973C0.773466 28.5117 1.47659 29.2207 2.30276 29.6133C3.15237 30.0234 2.26175 30 14.9707 30C27.709 30 26.8301 30.0234 27.7266 29.6016C28.5352 29.2148 29.2207 28.5234 29.6133 27.6973C30.0293 26.8359 30 27.7207 30 14.9766C30 3.55078 30 3.47461 29.877 3.01172C29.5137 1.60547 28.3242 0.445311 26.8887 0.0937481C26.543 0.0117168 25.3594 -1.90735e-06 14.9649 0.00585747C3.94925 0.00585747 3.41018 0.0117168 3.02933 0.117186ZM23.8653 7.75781C24.17 7.88086 24.375 8.16797 24.375 8.46679C24.375 8.77148 21.4746 21.627 21.3575 21.8613C21.2051 22.1543 20.9297 22.2949 20.5313 22.2949C20.127 22.2949 20.4024 22.4648 17.1094 20.2266L15.5567 19.1777L14.4141 20.2559C13.7871 20.8535 13.2012 21.375 13.1133 21.4219C12.8145 21.5801 12.416 21.498 12.1758 21.2285C12.1172 21.1641 11.7012 20.0215 11.25 18.6914C10.793 17.3555 10.418 16.2598 10.4121 16.248C10.4063 16.2422 9.38089 15.9609 8.14456 15.6211C5.64261 14.9355 5.62503 14.9238 5.62503 14.4727C5.62503 14.3203 5.66604 14.1973 5.75979 14.0977C5.8594 13.9863 7.11331 13.5117 11.4258 11.959C14.4727 10.8633 18.3867 9.45117 20.127 8.82422C21.8672 8.19726 23.3789 7.68164 23.4844 7.67578C23.5899 7.67578 23.7598 7.71094 23.8653 7.75781Z" fill="#367AE3"/>
<path d="M16.0841 13.0371C13.0548 14.7715 11.3087 15.8086 11.2559 15.8965C11.1798 16.0195 11.2266 16.1953 11.8302 18.0059C12.1934 19.0898 12.5098 19.9805 12.5333 19.9805C12.5567 19.9805 12.6505 19.3887 12.7384 18.6621C12.8263 17.9355 12.9083 17.3027 12.9259 17.2617C12.9434 17.2207 14.7716 15.7031 16.9981 13.8867C20.1915 11.2734 21.0352 10.5527 21.0235 10.459C21.0118 10.3945 20.9649 10.3359 20.9181 10.3301C20.8712 10.3184 18.6974 11.5371 16.0841 13.0371Z" fill="#367AE3"/>
<path d="M14.6485 10.8398C9.92583 12.5449 6.00591 13.9688 5.9356 13.998C5.63091 14.1387 5.55474 14.6309 5.80669 14.8594C5.87114 14.918 6.84966 15.2168 8.17974 15.5801L10.4473 16.207L11.2793 18.6445C11.7364 19.9863 12.1465 21.1289 12.1875 21.1816C12.334 21.3633 12.6036 21.457 12.8672 21.4277C13.1485 21.3984 13.2188 21.3457 14.6719 19.957C15.2403 19.418 15.5567 19.1602 15.6153 19.1836C15.6622 19.2012 16.4063 19.6934 17.2618 20.2793C20.1856 22.2656 20.1856 22.2656 20.5254 22.2656C20.8594 22.2656 21.1465 22.1309 21.293 21.9023C21.3575 21.7969 24.1993 9.43945 24.3458 8.61328C24.4219 8.16797 24 7.72852 23.502 7.74024C23.3028 7.74024 21.0586 8.53125 14.6485 10.8398ZM21.0235 10.3242C21.0645 10.3652 21.0938 10.4414 21.0938 10.4941C21.0938 10.5527 19.4883 11.9004 17.0684 13.8867C14.8477 15.6973 13.0137 17.2148 12.9903 17.2617C12.961 17.3086 12.8672 17.9414 12.7793 18.6621C12.6915 19.3828 12.6036 19.998 12.5801 20.0215C12.5567 20.0391 12.5157 20.0332 12.4864 20.0039C12.4629 19.9746 12.1407 19.0664 11.7774 17.9824C11.1387 16.1016 11.1153 16.0078 11.2032 15.873C11.2969 15.7324 20.7657 10.2539 20.9239 10.2539C20.9415 10.2539 20.9825 10.2832 21.0235 10.3242Z" fill="#ECECEC"/>
</g>
<defs>
<clipPath id="clip0_2045_2539">
<rect width="30" height="30" fill="white"/>
</clipPath>
</defs>
</svg>
